<?xml version="1.0" encoding="utf-8" standalone="no"?>
<!DOCTYPE svg PUBLIC "-//W3C//DTD SVG 1.1//EN"
  "http://www.w3.org/Graphics/SVG/1.1/DTD/svg11.dtd">
<svg xmlns:xlink="http://www.w3.org/1999/xlink" width="327.423125pt" height="153.700625pt" viewBox="0 0 327.423125 153.700625" xmlns="http://www.w3.org/2000/svg" version="1.1">
 <metadata>
  <rdf:RDF xmlns:dc="http://purl.org/dc/elements/1.1/" xmlns:cc="http://creativecommons.org/ns#" xmlns:rdf="http://www.w3.org/1999/02/22-rdf-syntax-ns#">
   <cc:Work>
    <dc:type rdf:resource="http://purl.org/dc/dcmitype/StillImage"/>
    <dc:date>2025-03-12T16:38:23.400571</dc:date>
    <dc:format>image/svg+xml</dc:format>
    <dc:creator>
     <cc:Agent>
      <dc:title>Matplotlib v3.10.0, https://matplotlib.org/</dc:title>
     </cc:Agent>
    </dc:creator>
   </cc:Work>
  </rdf:RDF>
 </metadata>
 <defs>
  <style type="text/css">*{stroke-linejoin: round; stroke-linecap: butt}</style>
 </defs>
 <g id="figure_1">
  <g id="patch_1">
   <path d="M 0 153.700625 
L 327.423125 153.700625 
L 327.423125 0 
L 0 0 
z
"/>
  </g>
  <g id="axes_1">
   <g id="patch_2">
    <path d="M 41.223125 118.08 
L 320.223125 118.08 
L 320.223125 7.2 
L 41.223125 7.2 
z
"/>
   </g>
   <g id="matplotlib.axis_1">
    <g id="xtick_1">
     <g id="line2d_1">
      <defs>
       <path id="m27ae805f42" d="M 0 0 
L 0 3.5 
" style="stroke: #ffffff; stroke-width: 1.5"/>
      </defs>
      <g>
       <use xlink:href="#m27ae805f42" x="53.904943" y="118.08" style="fill: #ffffff; stroke: #ffffff; stroke-width: 1.5"/>
      </g>
     </g>
     <g id="text_1">
      <text style="font-size: 9px; font-family: 'Arial', sans-serif; text-anchor: middle; fill: #ffffff" x="53.904943" y="131.918594" transform="rotate(-0 53.904943 131.918594)">0</text>
     </g>
    </g>
    <g id="xtick_2">
     <g id="line2d_2">
      <g>
       <use xlink:href="#m27ae805f42" x="85.768808" y="118.08" style="fill: #ffffff; stroke: #ffffff; stroke-width: 1.5"/>
      </g>
     </g>
     <g id="text_2">
      <text style="font-size: 9px; font-family: 'Arial', sans-serif; text-anchor: middle; fill: #ffffff" x="85.768808" y="131.918594" transform="rotate(-0 85.768808 131.918594)">25</text>
     </g>
    </g>
    <g id="xtick_3">
     <g id="line2d_3">
      <g>
       <use xlink:href="#m27ae805f42" x="117.632673" y="118.08" style="fill: #ffffff; stroke: #ffffff; stroke-width: 1.5"/>
      </g>
     </g>
     <g id="text_3">
      <text style="font-size: 9px; font-family: 'Arial', sans-serif; text-anchor: middle; fill: #ffffff" x="117.632673" y="131.918594" transform="rotate(-0 117.632673 131.918594)">50</text>
     </g>
    </g>
    <g id="xtick_4">
     <g id="line2d_4">
      <g>
       <use xlink:href="#m27ae805f42" x="149.496538" y="118.08" style="fill: #ffffff; stroke: #ffffff; stroke-width: 1.5"/>
      </g>
     </g>
     <g id="text_4">
      <text style="font-size: 9px; font-family: 'Arial', sans-serif; text-anchor: middle; fill: #ffffff" x="149.496538" y="131.918594" transform="rotate(-0 149.496538 131.918594)">75</text>
     </g>
    </g>
    <g id="xtick_5">
     <g id="line2d_5">
      <g>
       <use xlink:href="#m27ae805f42" x="181.360402" y="118.08" style="fill: #ffffff; stroke: #ffffff; stroke-width: 1.5"/>
      </g>
     </g>
     <g id="text_5">
      <text style="font-size: 9px; font-family: 'Arial', sans-serif; text-anchor: middle; fill: #ffffff" x="181.360402" y="131.918594" transform="rotate(-0 181.360402 131.918594)">100</text>
     </g>
    </g>
    <g id="xtick_6">
     <g id="line2d_6">
      <g>
       <use xlink:href="#m27ae805f42" x="213.224267" y="118.08" style="fill: #ffffff; stroke: #ffffff; stroke-width: 1.5"/>
      </g>
     </g>
     <g id="text_6">
      <text style="font-size: 9px; font-family: 'Arial', sans-serif; text-anchor: middle; fill: #ffffff" x="213.224267" y="131.918594" transform="rotate(-0 213.224267 131.918594)">125</text>
     </g>
    </g>
    <g id="xtick_7">
     <g id="line2d_7">
      <g>
       <use xlink:href="#m27ae805f42" x="245.088132" y="118.08" style="fill: #ffffff; stroke: #ffffff; stroke-width: 1.5"/>
      </g>
     </g>
     <g id="text_7">
      <text style="font-size: 9px; font-family: 'Arial', sans-serif; text-anchor: middle; fill: #ffffff" x="245.088132" y="131.918594" transform="rotate(-0 245.088132 131.918594)">150</text>
     </g>
    </g>
    <g id="xtick_8">
     <g id="line2d_8">
      <g>
       <use xlink:href="#m27ae805f42" x="276.951997" y="118.08" style="fill: #ffffff; stroke: #ffffff; stroke-width: 1.5"/>
      </g>
     </g>
     <g id="text_8">
      <text style="font-size: 9px; font-family: 'Arial', sans-serif; text-anchor: middle; fill: #ffffff" x="276.951997" y="131.918594" transform="rotate(-0 276.951997 131.918594)">175</text>
     </g>
    </g>
    <g id="xtick_9">
     <g id="line2d_9">
      <g>
       <use xlink:href="#m27ae805f42" x="308.815861" y="118.08" style="fill: #ffffff; stroke: #ffffff; stroke-width: 1.5"/>
      </g>
     </g>
     <g id="text_9">
      <text style="font-size: 9px; font-family: 'Arial', sans-serif; text-anchor: middle; fill: #ffffff" x="308.815861" y="131.918594" transform="rotate(-0 308.815861 131.918594)">200</text>
     </g>
    </g>
    <g id="text_10">
     <text style="font-size: 9px; font-family: 'Arial', sans-serif; text-anchor: middle; fill: #ffffff" x="180.723125" y="144.628906" transform="rotate(-0 180.723125 144.628906)">Acquisition</text>
    </g>
   </g>
   <g id="matplotlib.axis_2">
    <g id="ytick_1">
     <g id="line2d_10">
      <defs>
       <path id="m70536efeca" d="M 0 0 
L -3.5 0 
" style="stroke: #ffffff; stroke-width: 1.5"/>
      </defs>
      <g>
       <use xlink:href="#m70536efeca" x="41.223125" y="114.899001" style="fill: #ffffff; stroke: #ffffff; stroke-width: 1.5"/>
      </g>
     </g>
     <g id="text_11">
      <text style="font-size: 9px; font-family: 'Arial', sans-serif; text-anchor: end; fill: #ffffff" x="34.223125" y="118.318298" transform="rotate(-0 34.223125 118.318298)">0.0</text>
     </g>
    </g>
    <g id="ytick_2">
     <g id="line2d_11">
      <g>
       <use xlink:href="#m70536efeca" x="41.223125" y="95.665598" style="fill: #ffffff; stroke: #ffffff; stroke-width: 1.5"/>
      </g>
     </g>
     <g id="text_12">
      <text style="font-size: 9px; font-family: 'Arial', sans-serif; text-anchor: end; fill: #ffffff" x="34.223125" y="99.084895" transform="rotate(-0 34.223125 99.084895)">0.2</text>
     </g>
    </g>
    <g id="ytick_3">
     <g id="line2d_12">
      <g>
       <use xlink:href="#m70536efeca" x="41.223125" y="76.432194" style="fill: #ffffff; stroke: #ffffff; stroke-width: 1.5"/>
      </g>
     </g>
     <g id="text_13">
      <text style="font-size: 9px; font-family: 'Arial', sans-serif; text-anchor: end; fill: #ffffff" x="34.223125" y="79.851491" transform="rotate(-0 34.223125 79.851491)">0.4</text>
     </g>
    </g>
    <g id="ytick_4">
     <g id="line2d_13">
      <g>
       <use xlink:href="#m70536efeca" x="41.223125" y="57.198791" style="fill: #ffffff; stroke: #ffffff; stroke-width: 1.5"/>
      </g>
     </g>
     <g id="text_14">
      <text style="font-size: 9px; font-family: 'Arial', sans-serif; text-anchor: end; fill: #ffffff" x="34.223125" y="60.618088" transform="rotate(-0 34.223125 60.618088)">0.6</text>
     </g>
    </g>
    <g id="ytick_5">
     <g id="line2d_14">
      <g>
       <use xlink:href="#m70536efeca" x="41.223125" y="37.965387" style="fill: #ffffff; stroke: #ffffff; stroke-width: 1.5"/>
      </g>
     </g>
     <g id="text_15">
      <text style="font-size: 9px; font-family: 'Arial', sans-serif; text-anchor: end; fill: #ffffff" x="34.223125" y="41.384684" transform="rotate(-0 34.223125 41.384684)">0.8</text>
     </g>
    </g>
    <g id="ytick_6">
     <g id="line2d_15">
      <g>
       <use xlink:href="#m70536efeca" x="41.223125" y="18.731984" style="fill: #ffffff; stroke: #ffffff; stroke-width: 1.5"/>
      </g>
     </g>
     <g id="text_16">
      <text style="font-size: 9px; font-family: 'Arial', sans-serif; text-anchor: end; fill: #ffffff" x="34.223125" y="22.151281" transform="rotate(-0 34.223125 22.151281)">1.0</text>
     </g>
    </g>
    <g id="text_17">
     <text style="font-size: 9px; font-family: 'Arial', sans-serif; text-anchor: middle; fill: #ffffff" x="14.038594" y="62.64" transform="rotate(-90 14.038594 62.64)">MRI Signal</text>
    </g>
   </g>
   <g id="line2d_16">
    <path d="M 53.904943 13.030661 
L 55.179498 19.604893 
L 56.454052 18.51144 
L 57.728607 20.29529 
L 59.003162 19.690953 
L 60.277716 21.935152 
L 61.552271 20.63651 
L 62.826825 17.738789 
L 64.10138 20.91191 
L 65.375935 18.925846 
L 66.650489 12.24 
L 67.925044 15.497943 
L 69.199598 85.968028 
L 70.474153 93.605224 
L 71.748707 106.760504 
L 73.023262 111.131386 
L 74.297817 107.736488 
L 75.572371 87.101545 
L 76.846926 90.6915 
L 78.12148 98.032958 
L 79.396035 106.380617 
L 80.67059 102.071111 
L 81.945144 111.070087 
L 83.219699 93.346906 
L 84.494253 106.433787 
L 85.768808 107.111825 
L 87.043363 91.391115 
L 88.317917 88.635589 
L 89.592472 91.191532 
L 90.867026 112.62469 
L 92.141581 105.436361 
L 93.416136 92.006155 
L 94.69069 91.949134 
L 95.965245 103.570529 
L 97.239799 102.996236 
L 98.514354 103.904484 
L 99.788908 107.885877 
L 101.063463 100.158539 
L 102.338018 99.254419 
L 103.612572 90.270069 
L 104.887127 97.188875 
L 107.436236 83.468979 
L 108.710791 111.475196 
L 109.985345 93.450479 
L 111.2599 107.266407 
L 112.534454 90.012149 
L 113.809009 105.448009 
L 115.083564 103.428558 
L 116.358118 103.957724 
L 117.632673 97.088865 
L 118.907227 92.688944 
L 120.181782 106.06216 
L 121.456337 88.998694 
L 122.730891 99.028971 
L 124.005446 90.887606 
L 125.28 102.674145 
L 126.554555 95.975733 
L 127.829109 101.567859 
L 129.103664 109.026678 
L 130.378219 92.675686 
L 131.652773 94.095866 
L 132.927328 101.33519 
L 134.201882 85.111681 
L 135.476437 98.3816 
L 136.750992 107.144251 
L 138.025546 107.724011 
L 139.300101 96.316783 
L 140.574655 86.639474 
L 141.84921 93.991842 
L 143.123765 108.806314 
L 144.398319 108.159745 
L 145.672874 112.258198 
L 146.947428 109.014556 
L 148.221983 107.544811 
L 149.496538 108.360648 
L 150.771092 106.797318 
L 152.045647 82.400534 
L 153.320201 92.762848 
L 154.594756 91.745511 
L 155.86931 100.789827 
L 157.143865 110.945093 
L 158.41842 95.735922 
L 159.692974 104.332681 
L 160.967529 105.008701 
L 162.242083 103.185238 
L 163.516638 98.734663 
L 164.791193 86.463041 
L 166.065747 92.633987 
L 167.340302 112.571411 
L 168.614856 105.497465 
L 169.889411 89.144714 
L 171.163966 107.468333 
L 172.43852 85.775871 
L 173.713075 101.385765 
L 174.987629 99.069652 
L 177.536739 90.783098 
L 178.811293 107.454766 
L 180.085848 92.064949 
L 181.360402 104.579492 
L 182.634957 87.218114 
L 183.909511 99.179565 
L 185.184066 100.490839 
L 186.458621 99.87398 
L 187.733175 96.489514 
L 189.00773 91.537148 
L 190.282284 106.221941 
L 191.556839 88.537721 
L 192.831394 94.015019 
L 194.105948 88.658569 
L 195.380503 100.00693 
L 196.655057 88.605642 
L 197.929612 90.69911 
L 199.204167 88.253741 
L 200.478721 90.207725 
L 201.753276 107.441801 
L 203.02783 107.615752 
L 204.302385 109.765543 
L 205.57694 84.399363 
L 206.851494 92.571856 
L 208.126049 90.882197 
L 209.400603 107.635218 
L 210.675158 87.884568 
L 211.949712 106.932117 
L 213.224267 111.046192 
L 214.498822 96.471834 
L 215.773376 105.077553 
L 217.047931 88.70887 
L 218.322485 108.607555 
L 219.59704 100.267532 
L 220.871595 101.582407 
L 222.146149 98.954009 
L 223.420704 111.425415 
L 224.695258 93.000456 
L 225.969813 87.034865 
L 227.244368 97.490787 
L 228.518922 90.48669 
L 229.793477 89.320687 
L 231.068031 110.712363 
L 232.342586 100.468645 
L 233.617141 105.984725 
L 234.891695 83.258798 
L 236.16625 102.185809 
L 237.440804 103.801298 
L 238.715359 111.2632 
L 239.989913 109.073882 
L 241.264468 101.69955 
L 242.539023 108.518989 
L 243.813577 92.415618 
L 245.088132 109.196987 
L 246.362686 106.67306 
L 247.637241 91.249042 
L 248.911796 97.764706 
L 250.18635 102.486131 
L 251.460905 107.935094 
L 252.735459 88.241666 
L 254.010014 105.104448 
L 255.284569 100.948992 
L 256.559123 94.031031 
L 257.833678 84.556345 
L 259.108232 108.551988 
L 260.382787 108.433173 
L 261.657342 110.377327 
L 262.931896 101.938107 
L 264.206451 107.163869 
L 265.481005 107.805866 
L 266.75556 111.271533 
L 268.030114 106.614199 
L 269.304669 108.134418 
L 270.579224 91.746101 
L 271.853778 103.191699 
L 273.128333 107.530869 
L 274.402887 96.980038 
L 275.677442 90.684118 
L 276.951997 92.199812 
L 278.226551 106.196362 
L 279.501106 109.3753 
L 280.77566 112.030535 
L 282.050215 95.04018 
L 283.32477 94.368126 
L 284.599324 97.540138 
L 285.873879 104.462652 
L 287.148433 110.389822 
L 288.422988 111.763276 
L 289.697543 91.410511 
L 290.972097 106.478917 
L 292.246652 90.990275 
L 294.795761 107.037604 
L 296.070315 87.319995 
L 297.34487 98.866287 
L 298.619425 96.345234 
L 299.893979 94.487518 
L 301.168534 105.375964 
L 302.443088 103.828588 
L 303.717643 109.189466 
L 304.992198 102.399876 
L 306.266752 112.203284 
L 307.541307 98.882772 
L 307.541307 98.882772 
" clip-path="url(#p4ee7537259)" style="fill: none; stroke: #ff0000; stroke-opacity: 0.5; stroke-width: 1.5; stroke-linecap: square"/>
   </g>
   <g id="line2d_17">
    <path d="M 53.904943 16.134562 
L 55.179498 17.172226 
L 57.728607 20.337305 
L 59.003162 23.265567 
L 60.277716 14.996072 
L 61.552271 15.485608 
L 62.826825 16.800323 
L 64.10138 16.844631 
L 65.375935 19.91762 
L 66.650489 13.848984 
L 67.925044 16.646476 
L 69.199598 95.091124 
L 70.474153 97.551657 
L 73.023262 111.05723 
L 74.297817 108.922402 
L 75.572371 92.502555 
L 76.846926 97.472298 
L 78.12148 95.229882 
L 79.396035 111.228938 
L 80.67059 92.159004 
L 81.945144 110.809846 
L 83.219699 90.314667 
L 84.494253 106.661338 
L 85.768808 110.593188 
L 87.043363 96.81213 
L 88.317917 88.987454 
L 89.592472 96.9005 
L 90.867026 111.780961 
L 92.141581 110.388008 
L 93.416136 97.058405 
L 94.69069 93.399857 
L 95.965245 102.013847 
L 97.239799 102.518782 
L 98.514354 105.671023 
L 99.788908 111.561841 
L 101.063463 102.5062 
L 102.338018 98.694064 
L 103.612572 92.074384 
L 104.887127 94.448923 
L 106.161681 92.968711 
L 107.436236 91.109114 
L 108.710791 109.937724 
L 109.985345 94.583222 
L 111.2599 111.095753 
L 112.534454 92.962786 
L 113.809009 106.510283 
L 115.083564 106.503309 
L 116.358118 101.92592 
L 117.632673 105.246378 
L 118.907227 102.773879 
L 120.181782 109.402842 
L 121.456337 90.261603 
L 122.730891 104.84952 
L 124.005446 90.900773 
L 125.28 104.946257 
L 126.554555 94.098102 
L 127.829109 105.089094 
L 129.103664 107.901835 
L 130.378219 86.645353 
L 131.652773 103.938137 
L 132.927328 101.204588 
L 134.201882 94.364098 
L 135.476437 103.182113 
L 136.750992 109.255188 
L 138.025546 112.798943 
L 139.300101 93.484643 
L 140.574655 92.35187 
L 141.84921 90.938266 
L 143.123765 112.639115 
L 145.672874 107.456111 
L 146.947428 106.429619 
L 148.221983 106.079298 
L 149.496538 105.084885 
L 150.771092 102.336419 
L 152.045647 93.265112 
L 153.320201 87.627382 
L 154.594756 88.685243 
L 155.86931 100.094332 
L 157.143865 107.179671 
L 158.41842 101.608731 
L 159.692974 109.318844 
L 160.967529 105.723478 
L 162.242083 104.301095 
L 163.516638 102.452768 
L 164.791193 90.44276 
L 166.065747 90.88378 
L 167.340302 110.043509 
L 168.614856 108.515968 
L 169.889411 91.838004 
L 171.163966 104.562608 
L 172.43852 87.923018 
L 173.713075 106.897706 
L 174.987629 101.319794 
L 176.262184 99.428725 
L 177.536739 91.295758 
L 178.811293 111.397352 
L 180.085848 94.731076 
L 181.360402 106.276838 
L 182.634957 93.343072 
L 183.909511 95.357088 
L 185.184066 98.218598 
L 186.458621 100.376405 
L 187.733175 98.149554 
L 189.00773 86.926235 
L 190.282284 102.822693 
L 191.556839 89.260607 
L 192.831394 96.733028 
L 194.105948 94.285118 
L 195.380503 99.248906 
L 196.655057 93.426437 
L 197.929612 88.354822 
L 199.204167 87.892309 
L 200.478721 92.351406 
L 201.753276 108.9479 
L 203.02783 108.830707 
L 204.302385 111.450731 
L 205.57694 89.837418 
L 206.851494 90.950798 
L 208.126049 94.916845 
L 209.400603 111.974549 
L 210.675158 85.683546 
L 211.949712 112.138636 
L 213.224267 111.295205 
L 214.498822 94.828713 
L 215.773376 107.150064 
L 217.047931 93.710216 
L 218.322485 112.93782 
L 219.59704 102.954344 
L 220.871595 103.183324 
L 222.146149 99.151987 
L 223.420704 112.170107 
L 224.695258 91.139025 
L 225.969813 91.836708 
L 227.244368 95.470374 
L 228.518922 97.050296 
L 229.793477 88.484631 
L 231.068031 109.402464 
L 232.342586 99.792684 
L 233.617141 107.551422 
L 234.891695 88.727852 
L 236.16625 102.956286 
L 237.440804 109.817192 
L 238.715359 109.589266 
L 239.989913 103.991466 
L 241.264468 101.860208 
L 242.539023 110.231136 
L 243.813577 95.669649 
L 245.088132 110.204175 
L 246.362686 104.830916 
L 247.637241 92.915015 
L 248.911796 94.384471 
L 250.18635 105.985163 
L 251.460905 104.999599 
L 252.735459 93.28274 
L 254.010014 105.877856 
L 255.284569 102.439441 
L 256.559123 96.025741 
L 257.833678 90.99423 
L 259.108232 109.885596 
L 260.382787 105.463025 
L 261.657342 112.357662 
L 262.931896 98.302129 
L 264.206451 110.69442 
L 265.481005 106.05703 
L 266.75556 108.427434 
L 269.304669 106.134731 
L 270.579224 91.645553 
L 271.853778 96.889469 
L 273.128333 111.589933 
L 274.402887 93.855953 
L 275.677442 90.106034 
L 276.951997 93.374902 
L 278.226551 109.003069 
L 279.501106 111.85977 
L 280.77566 105.075783 
L 282.050215 101.212895 
L 283.32477 99.29764 
L 284.599324 94.250467 
L 285.873879 103.97894 
L 287.148433 106.869533 
L 288.422988 111.248424 
L 289.697543 96.718642 
L 290.972097 104.849031 
L 292.246652 91.395423 
L 293.521206 103.004482 
L 294.795761 108.602997 
L 296.070315 90.438605 
L 297.34487 98.545583 
L 298.619425 96.489366 
L 299.893979 96.118576 
L 301.168534 112.589017 
L 302.443088 104.295133 
L 303.717643 109.510562 
L 304.992198 102.53026 
L 306.266752 111.033883 
L 307.541307 97.359319 
L 307.541307 97.359319 
" clip-path="url(#p4ee7537259)" style="fill: none; stroke: #ff0000; stroke-opacity: 0.5; stroke-width: 1.5; stroke-linecap: square"/>
   </g>
   <g id="line2d_18">
    <path d="M 53.904943 20.319009 
L 55.179498 19.589199 
L 56.454052 20.171307 
L 57.728607 23.547197 
L 59.003162 17.426876 
L 60.277716 15.902737 
L 61.552271 13.925438 
L 62.826825 18.419624 
L 65.375935 21.056024 
L 66.650489 16.573049 
L 67.925044 24.049028 
L 69.199598 84.500659 
L 70.474153 86.533464 
L 71.748707 106.294099 
L 73.023262 111.467246 
L 74.297817 104.664382 
L 75.572371 88.111819 
L 76.846926 90.322609 
L 78.12148 97.924624 
L 79.396035 111.233534 
L 80.67059 102.143118 
L 81.945144 111.534352 
L 83.219699 87.460211 
L 84.494253 105.464706 
L 85.768808 109.095353 
L 87.043363 93.933036 
L 88.317917 85.3416 
L 89.592472 91.865206 
L 90.867026 112.422258 
L 92.141581 104.327096 
L 93.416136 91.477782 
L 94.69069 91.495399 
L 95.965245 101.840685 
L 97.239799 106.653423 
L 98.514354 106.844567 
L 99.788908 111.362693 
L 101.063463 94.478626 
L 102.338018 102.759204 
L 103.612572 88.621062 
L 104.887127 88.178683 
L 106.161681 95.514995 
L 107.436236 90.290771 
L 108.710791 110.928859 
L 109.985345 94.110645 
L 111.2599 104.433074 
L 112.534454 86.087953 
L 113.809009 100.965744 
L 115.083564 99.940626 
L 116.358118 96.72322 
L 117.632673 101.486519 
L 118.907227 97.748171 
L 120.181782 109.596792 
L 121.456337 82.489403 
L 122.730891 99.195126 
L 124.005446 87.314071 
L 125.28 98.283375 
L 126.554555 94.196371 
L 127.829109 104.773773 
L 129.103664 109.147238 
L 130.378219 88.843443 
L 131.652773 98.3999 
L 132.927328 105.411174 
L 134.201882 86.198924 
L 135.476437 103.898549 
L 136.750992 103.51407 
L 138.025546 112.515102 
L 139.300101 93.40826 
L 140.574655 84.539699 
L 141.84921 91.818655 
L 143.123765 111.557193 
L 144.398319 109.708679 
L 145.672874 110.301567 
L 146.947428 109.562301 
L 148.221983 113.04 
L 149.496538 108.795374 
L 150.771092 103.537219 
L 152.045647 88.017783 
L 153.320201 87.191965 
L 154.594756 80.637519 
L 155.86931 96.69805 
L 157.143865 110.527595 
L 158.41842 98.699679 
L 160.967529 109.128266 
L 162.242083 100.795221 
L 163.516638 103.971943 
L 164.791193 91.433939 
L 166.065747 87.110393 
L 167.340302 112.333393 
L 168.614856 109.528546 
L 169.889411 84.969456 
L 171.163966 100.502994 
L 172.43852 90.426504 
L 173.713075 102.226259 
L 174.987629 95.847752 
L 176.262184 96.930869 
L 177.536739 84.104629 
L 178.811293 112.275399 
L 180.085848 94.270482 
L 181.360402 107.728391 
L 182.634957 94.246659 
L 183.909511 96.99794 
L 185.184066 96.943951 
L 186.458621 104.53283 
L 187.733175 99.197619 
L 189.00773 85.719617 
L 190.282284 106.511531 
L 191.556839 88.353108 
L 192.831394 89.028217 
L 194.105948 90.865971 
L 195.380503 98.538336 
L 196.655057 91.331311 
L 197.929612 88.535431 
L 199.204167 87.003264 
L 200.478721 87.423019 
L 201.753276 108.732819 
L 203.02783 111.328607 
L 204.302385 110.665249 
L 205.57694 88.481224 
L 206.851494 85.49163 
L 208.126049 91.421388 
L 209.400603 111.371004 
L 210.675158 93.032382 
L 211.949712 112.030394 
L 213.224267 111.876223 
L 214.498822 93.756214 
L 215.773376 104.075106 
L 217.047931 92.390831 
L 218.322485 102.298395 
L 219.59704 99.308938 
L 220.871595 101.398593 
L 222.146149 95.518781 
L 223.420704 110.861917 
L 224.695258 91.967728 
L 225.969813 79.686875 
L 227.244368 101.934694 
L 228.518922 94.337579 
L 229.793477 90.352989 
L 231.068031 109.551561 
L 232.342586 100.235197 
L 233.617141 100.38457 
L 234.891695 85.185045 
L 236.16625 102.805995 
L 237.440804 110.635104 
L 238.715359 110.317444 
L 239.989913 109.723371 
L 241.264468 105.203676 
L 242.539023 102.596948 
L 243.813577 92.464865 
L 245.088132 106.500357 
L 246.362686 106.883363 
L 247.637241 90.670341 
L 248.911796 90.772611 
L 250.18635 98.664328 
L 251.460905 104.292828 
L 252.735459 93.128125 
L 254.010014 104.3861 
L 255.284569 99.441255 
L 256.559123 93.930124 
L 257.833678 89.053151 
L 259.108232 108.567788 
L 260.382787 108.316517 
L 261.657342 112.285154 
L 262.931896 100.354581 
L 264.206451 108.719957 
L 265.481005 105.942422 
L 266.75556 108.129515 
L 268.030114 107.6192 
L 269.304669 108.085598 
L 270.579224 94.23498 
L 271.853778 103.739086 
L 273.128333 110.693895 
L 274.402887 95.555394 
L 275.677442 83.059376 
L 276.951997 85.328815 
L 278.226551 109.767175 
L 279.501106 113.032808 
L 282.050215 96.172907 
L 283.32477 93.368031 
L 284.599324 93.506856 
L 285.873879 99.26308 
L 287.148433 110.261129 
L 288.422988 108.857784 
L 289.697543 98.392138 
L 290.972097 105.262453 
L 292.246652 92.353183 
L 293.521206 99.402465 
L 294.795761 109.037964 
L 296.070315 92.336107 
L 297.34487 100.828631 
L 298.619425 99.222098 
L 299.893979 96.278235 
L 301.168534 111.634796 
L 302.443088 103.222971 
L 303.717643 111.436606 
L 304.992198 98.358598 
L 306.266752 107.463071 
L 307.541307 91.612573 
L 307.541307 91.612573 
" clip-path="url(#p4ee7537259)" style="fill: none; stroke: #ff0000; stroke-opacity: 0.5; stroke-width: 1.5; stroke-linecap: square"/>
   </g>
   <g id="line2d_19">
    <path d="M 53.904943 15.412032 
L 55.179498 19.039661 
L 56.454052 19.843029 
L 57.728607 16.973601 
L 59.003162 16.655796 
L 60.277716 22.965634 
L 61.552271 19.807663 
L 62.826825 22.564715 
L 64.10138 18.748962 
L 65.375935 17.96385 
L 66.650489 19.334394 
L 67.925044 19.203269 
L 69.199598 87.32984 
L 70.474153 86.714684 
L 71.748707 100.234365 
L 73.023262 110.51391 
L 74.297817 107.246043 
L 75.572371 83.557163 
L 76.846926 85.217566 
L 78.12148 95.261014 
L 79.396035 108.028436 
L 80.67059 92.423533 
L 81.945144 110.253058 
L 83.219699 94.039786 
L 84.494253 105.427669 
L 85.768808 108.226626 
L 87.043363 89.916419 
L 88.317917 87.170699 
L 89.592472 88.671681 
L 90.867026 112.352469 
L 92.141581 105.226629 
L 93.416136 90.64406 
L 94.69069 84.168458 
L 95.965245 102.226506 
L 97.239799 105.164197 
L 98.514354 106.748784 
L 99.788908 109.035744 
L 101.063463 99.200199 
L 102.338018 99.717427 
L 103.612572 90.184276 
L 104.887127 90.174245 
L 106.161681 85.173223 
L 107.436236 87.928186 
L 108.710791 109.977036 
L 109.985345 86.749681 
L 111.2599 101.597405 
L 112.534454 89.352376 
L 113.809009 99.131188 
L 115.083564 97.852016 
L 116.358118 98.425215 
L 117.632673 101.63855 
L 118.907227 97.571846 
L 120.181782 108.98224 
L 121.456337 85.433728 
L 122.730891 100.206791 
L 124.005446 83.639841 
L 125.28 100.664698 
L 126.554555 94.580308 
L 127.829109 99.34066 
L 129.103664 107.832165 
L 130.378219 84.311864 
L 132.927328 106.144875 
L 134.201882 79.355013 
L 135.476437 100.705587 
L 136.750992 102.918172 
L 138.025546 112.102253 
L 139.300101 96.693148 
L 140.574655 86.462788 
L 141.84921 89.979033 
L 143.123765 112.110155 
L 144.398319 109.758382 
L 145.672874 108.61224 
L 148.221983 111.697851 
L 150.771092 103.306664 
L 152.045647 87.709788 
L 153.320201 87.648289 
L 154.594756 85.5985 
L 155.86931 97.747413 
L 157.143865 112.640303 
L 158.41842 99.180038 
L 159.692974 107.744752 
L 160.967529 101.807416 
L 162.242083 99.758303 
L 163.516638 95.608343 
L 164.791193 85.267592 
L 166.065747 87.858075 
L 167.340302 111.748302 
L 168.614856 106.288692 
L 169.889411 87.240581 
L 171.163966 105.612685 
L 172.43852 91.26347 
L 173.713075 110.496012 
L 174.987629 95.338229 
L 176.262184 97.423581 
L 177.536739 84.90747 
L 178.811293 110.04424 
L 180.085848 88.220469 
L 181.360402 102.786196 
L 182.634957 92.724164 
L 183.909511 93.7712 
L 185.184066 98.667309 
L 186.458621 100.238866 
L 187.733175 98.11841 
L 189.00773 84.406659 
L 190.282284 93.743844 
L 191.556839 85.246859 
L 192.831394 91.765685 
L 194.105948 96.24289 
L 195.380503 94.73164 
L 196.655057 87.989103 
L 197.929612 86.000305 
L 199.204167 83.002961 
L 200.478721 84.147258 
L 201.753276 108.76493 
L 203.02783 108.897255 
L 204.302385 110.25938 
L 205.57694 87.606775 
L 206.851494 87.857697 
L 208.126049 89.618109 
L 209.400603 110.855536 
L 210.675158 86.591672 
L 211.949712 107.676154 
L 213.224267 111.595503 
L 214.498822 90.397093 
L 215.773376 103.48677 
L 217.047931 92.207107 
L 218.322485 106.899344 
L 219.59704 100.078208 
L 220.871595 105.589755 
L 222.146149 96.592041 
L 223.420704 112.328007 
L 224.695258 89.285097 
L 225.969813 83.970053 
L 227.244368 100.732721 
L 228.518922 89.844973 
L 229.793477 89.143525 
L 231.068031 110.296824 
L 232.342586 99.669142 
L 233.617141 103.265582 
L 234.891695 82.779218 
L 236.16625 97.174952 
L 237.440804 107.906422 
L 238.715359 112.126401 
L 239.989913 107.00794 
L 241.264468 98.658989 
L 242.539023 106.21979 
L 243.813577 86.760219 
L 245.088132 107.825544 
L 246.362686 106.68382 
L 247.637241 92.838122 
L 248.911796 92.850719 
L 250.18635 101.926206 
L 251.460905 106.366527 
L 252.735459 88.3507 
L 254.010014 101.176766 
L 255.284569 97.116049 
L 256.559123 87.742882 
L 257.833678 84.285496 
L 259.108232 110.873659 
L 260.382787 103.987893 
L 261.657342 112.539742 
L 262.931896 95.505579 
L 264.206451 108.657987 
L 265.481005 105.380446 
L 266.75556 110.06416 
L 268.030114 102.454673 
L 269.304669 106.251291 
L 270.579224 92.948523 
L 271.853778 97.050717 
L 273.128333 107.191939 
L 274.402887 95.514983 
L 275.677442 87.250767 
L 276.951997 84.074774 
L 278.226551 109.038009 
L 279.501106 110.717218 
L 280.77566 111.170909 
L 282.050215 96.759199 
L 283.32477 97.639345 
L 284.599324 96.505694 
L 285.873879 97.866001 
L 287.148433 107.57621 
L 288.422988 110.925334 
L 289.697543 92.982707 
L 290.972097 103.960835 
L 292.246652 89.666364 
L 294.795761 108.728908 
L 296.070315 89.309246 
L 297.34487 98.760028 
L 298.619425 95.106437 
L 299.893979 98.176728 
L 301.168534 112.892508 
L 302.443088 96.495068 
L 303.717643 109.694993 
L 304.992198 98.257988 
L 306.266752 108.286515 
L 307.541307 95.615771 
L 307.541307 95.615771 
" clip-path="url(#p4ee7537259)" style="fill: none; stroke: #ff0000; stroke-opacity: 0.5; stroke-width: 1.5; stroke-linecap: square"/>
   </g>
   <g id="line2d_20">
    <path d="M 53.904943 20.63843 
L 56.454052 16.367109 
L 57.728607 19.907417 
L 59.003162 17.937391 
L 60.277716 21.804577 
L 61.552271 17.031838 
L 62.826825 23.104738 
L 64.10138 19.995013 
L 65.375935 18.660426 
L 66.650489 13.860746 
L 67.925044 17.768996 
L 69.199598 88.424434 
L 70.474153 88.018921 
L 71.748707 107.609254 
L 73.023262 109.882886 
L 74.297817 108.547864 
L 75.572371 87.635063 
L 76.846926 88.509107 
L 78.12148 88.392246 
L 79.396035 110.876789 
L 80.67059 97.054874 
L 81.945144 111.008698 
L 83.219699 96.156336 
L 85.768808 108.851262 
L 87.043363 97.345478 
L 88.317917 84.171106 
L 89.592472 88.231604 
L 90.867026 111.146627 
L 92.141581 107.05087 
L 93.416136 90.23826 
L 94.69069 92.767203 
L 95.965245 101.995559 
L 97.239799 107.068536 
L 98.514354 103.720049 
L 99.788908 107.278233 
L 101.063463 97.646875 
L 102.338018 105.482717 
L 103.612572 94.703596 
L 104.887127 90.247978 
L 106.161681 89.218574 
L 107.436236 85.947249 
L 108.710791 109.433228 
L 109.985345 90.442709 
L 111.2599 111.066846 
L 112.534454 87.887451 
L 113.809009 97.488867 
L 115.083564 99.731853 
L 116.358118 101.281792 
L 117.632673 100.213413 
L 118.907227 96.07131 
L 120.181782 109.14249 
L 121.456337 86.620206 
L 122.730891 98.163859 
L 124.005446 89.347968 
L 125.28 104.968482 
L 126.554555 95.806138 
L 127.829109 100.665416 
L 129.103664 104.078407 
L 130.378219 85.929944 
L 131.652773 96.70656 
L 132.927328 103.432583 
L 134.201882 88.448749 
L 135.476437 104.890789 
L 136.750992 107.920234 
L 138.025546 112.765806 
L 139.300101 97.037555 
L 140.574655 91.322718 
L 141.84921 93.611688 
L 143.123765 105.466175 
L 144.398319 109.514412 
L 145.672874 111.623929 
L 146.947428 110.525001 
L 148.221983 112.472501 
L 149.496538 103.846644 
L 150.771092 107.074566 
L 152.045647 85.365678 
L 153.320201 90.775397 
L 154.594756 83.004681 
L 155.86931 99.909908 
L 157.143865 111.108995 
L 158.41842 100.019098 
L 159.692974 103.631862 
L 160.967529 106.474608 
L 162.242083 97.41819 
L 163.516638 97.642198 
L 164.791193 82.97525 
L 166.065747 91.972792 
L 167.340302 112.690671 
L 168.614856 109.899145 
L 169.889411 87.529763 
L 171.163966 103.904377 
L 172.43852 91.815056 
L 173.713075 109.976285 
L 174.987629 94.232546 
L 176.262184 94.325888 
L 177.536739 86.966284 
L 178.811293 112.395113 
L 180.085848 92.617375 
L 181.360402 91.691785 
L 182.634957 87.924549 
L 183.909511 94.121015 
L 185.184066 97.745791 
L 186.458621 98.152486 
L 187.733175 97.546607 
L 189.00773 83.31414 
L 190.282284 105.146169 
L 191.556839 85.192207 
L 192.831394 91.457675 
L 194.105948 94.919199 
L 195.380503 96.630835 
L 196.655057 92.641308 
L 197.929612 84.630807 
L 199.204167 84.961577 
L 200.478721 87.754137 
L 201.753276 104.691759 
L 203.02783 107.785834 
L 204.302385 108.645252 
L 205.57694 89.309048 
L 206.851494 85.043058 
L 208.126049 93.631813 
L 209.400603 104.465616 
L 210.675158 83.631813 
L 211.949712 108.871939 
L 213.224267 110.742547 
L 214.498822 92.588366 
L 215.773376 106.219507 
L 217.047931 90.576901 
L 218.322485 111.606326 
L 219.59704 97.471635 
L 220.871595 107.038744 
L 222.146149 99.952855 
L 223.420704 110.12724 
L 224.695258 87.44337 
L 225.969813 83.023344 
L 227.244368 102.393936 
L 228.518922 91.356146 
L 229.793477 87.038895 
L 231.068031 103.023141 
L 232.342586 104.483799 
L 233.617141 105.363174 
L 234.891695 89.499001 
L 236.16625 105.329661 
L 237.440804 111.318749 
L 238.715359 112.161446 
L 239.989913 109.059476 
L 241.264468 99.952995 
L 242.539023 106.54465 
L 243.813577 89.188661 
L 245.088132 107.232325 
L 246.362686 102.843309 
L 247.637241 94.022601 
L 248.911796 94.927989 
L 250.18635 102.182646 
L 251.460905 102.186671 
L 252.735459 82.15885 
L 254.010014 99.953169 
L 255.284569 100.979493 
L 256.559123 93.853182 
L 257.833678 85.307865 
L 259.108232 111.863769 
L 260.382787 108.709019 
L 261.657342 112.877253 
L 262.931896 95.314315 
L 264.206451 108.941216 
L 265.481005 102.730396 
L 266.75556 107.561997 
L 268.030114 107.132446 
L 269.304669 108.343075 
L 270.579224 87.263919 
L 271.853778 96.316402 
L 273.128333 102.513876 
L 274.402887 97.728781 
L 275.677442 90.683467 
L 276.951997 89.911467 
L 278.226551 105.482607 
L 279.501106 111.046342 
L 280.77566 110.641116 
L 282.050215 100.104727 
L 283.32477 96.052453 
L 284.599324 92.847375 
L 285.873879 100.69728 
L 287.148433 106.962558 
L 288.422988 110.238009 
L 289.697543 94.274765 
L 290.972097 106.37993 
L 292.246652 84.929309 
L 293.521206 102.739848 
L 294.795761 108.248649 
L 296.070315 87.926231 
L 297.34487 93.772345 
L 298.619425 100.468931 
L 299.893979 97.370727 
L 301.168534 111.102019 
L 302.443088 98.446165 
L 303.717643 108.171018 
L 304.992198 96.767083 
L 306.266752 112.978948 
L 307.541307 92.448496 
L 307.541307 92.448496 
" clip-path="url(#p4ee7537259)" style="fill: none; stroke: #ff0000; stroke-opacity: 0.5; stroke-width: 1.5; stroke-linecap: square"/>
   </g>
   <g id="line2d_21">
    <path d="M 53.904943 18.61528 
L 64.10138 18.714891 
L 65.375935 18.613137 
L 67.925044 18.739688 
L 69.199598 87.204266 
L 70.474153 90.14324 
L 71.748707 104.881152 
L 73.023262 109.207484 
L 74.297817 105.666702 
L 75.572371 87.139918 
L 76.846926 91.483689 
L 78.12148 95.002404 
L 79.396035 110.589931 
L 80.67059 97.837635 
L 81.945144 109.025881 
L 83.219699 92.633585 
L 84.494253 103.478247 
L 85.768808 107.492062 
L 87.043363 95.690344 
L 88.317917 88.450251 
L 89.592472 91.645199 
L 90.867026 110.500558 
L 92.141581 107.770973 
L 93.416136 91.758739 
L 94.69069 89.06532 
L 95.965245 101.045589 
L 97.239799 105.015694 
L 98.514354 106.808544 
L 99.788908 109.846811 
L 101.063463 98.708754 
L 102.338018 101.253731 
L 103.612572 94.118459 
L 104.887127 90.752254 
L 106.161681 90.390848 
L 107.436236 86.990502 
L 108.710791 109.448301 
L 109.985345 91.015628 
L 111.2599 109.091998 
L 112.534454 88.036621 
L 113.809009 101.685951 
L 115.083564 101.16825 
L 116.358118 99.096938 
L 117.632673 101.070632 
L 118.907227 96.223136 
L 120.181782 106.803044 
L 121.456337 87.61856 
L 122.730891 101.847422 
L 124.005446 88.936104 
L 125.28 101.36256 
L 126.554555 97.410752 
L 127.829109 102.806603 
L 129.103664 109.003618 
L 130.378219 86.967677 
L 131.652773 99.08724 
L 132.927328 103.540357 
L 134.201882 88.288038 
L 135.476437 102.794626 
L 136.750992 105.268149 
L 138.025546 110.442043 
L 139.300101 92.85061 
L 140.574655 88.202044 
L 141.84921 92.359283 
L 143.123765 110.413648 
L 144.398319 108.844323 
L 145.672874 110.217223 
L 146.947428 108.970627 
L 148.221983 110.661608 
L 149.496538 106.410091 
L 150.771092 105.906656 
L 152.045647 87.673608 
L 153.320201 87.006036 
L 154.594756 87.68412 
L 155.86931 97.294619 
L 157.143865 110.595687 
L 158.41842 100.475003 
L 159.692974 107.867728 
L 162.242083 104.451783 
L 163.516638 100.505059 
L 164.791193 87.063949 
L 166.065747 90.910185 
L 167.340302 110.484178 
L 168.614856 109.475368 
L 169.889411 87.097069 
L 171.163966 104.365295 
L 172.43852 89.652598 
L 173.713075 109.455519 
L 174.987629 97.507861 
L 176.262184 98.651305 
L 177.536739 87.159419 
L 178.811293 110.095011 
L 180.085848 92.090633 
L 181.360402 104.783327 
L 182.634957 91.511483 
L 183.909511 97.631068 
L 185.184066 96.678154 
L 186.458621 101.393963 
L 187.733175 94.928876 
L 189.00773 86.898208 
L 190.282284 102.796138 
L 191.556839 88.002447 
L 192.831394 91.606887 
L 194.105948 93.914407 
L 195.380503 97.037599 
L 196.655057 90.67016 
L 197.929612 87.355356 
L 199.204167 87.078213 
L 200.478721 86.958085 
L 201.753276 109.227569 
L 203.02783 109.291292 
L 204.302385 108.819721 
L 205.57694 87.437123 
L 206.851494 86.988677 
L 208.126049 91.434147 
L 209.400603 110.103526 
L 210.675158 87.509982 
L 211.949712 109.772903 
L 213.224267 109.635755 
L 214.498822 91.847578 
L 215.773376 105.12236 
L 217.047931 90.957725 
L 218.322485 110.476856 
L 219.59704 99.466165 
L 220.871595 103.955177 
L 222.146149 97.480717 
L 223.420704 110.473347 
L 224.695258 89.945205 
L 225.969813 87.652623 
L 227.244368 100.077959 
L 228.518922 90.384168 
L 229.793477 88.265643 
L 231.068031 108.494916 
L 232.342586 102.180081 
L 233.617141 104.719965 
L 234.891695 87.71908 
L 236.16625 100.944901 
L 237.440804 108.92034 
L 238.715359 110.593389 
L 239.989913 106.925718 
L 241.264468 101.878641 
L 242.539023 106.727498 
L 243.813577 90.812847 
L 245.088132 106.847367 
L 246.362686 106.106472 
L 247.637241 91.664985 
L 248.911796 94.178345 
L 250.18635 101.125317 
L 251.460905 104.695788 
L 252.735459 87.831049 
L 254.010014 103.571685 
L 255.284569 99.865496 
L 256.559123 92.029615 
L 257.833678 87.079251 
L 259.108232 109.966216 
L 260.382787 105.470198 
L 261.657342 110.688275 
L 262.931896 97.406038 
L 264.206451 107.642348 
L 265.481005 106.209094 
L 266.75556 109.56774 
L 268.030114 105.865378 
L 269.304669 109.199866 
L 270.579224 91.410942 
L 271.853778 99.190146 
L 273.128333 109.693347 
L 274.402887 94.662151 
L 275.677442 86.954156 
L 276.951997 87.565244 
L 278.226551 108.039565 
L 279.501106 110.776075 
L 280.77566 110.587398 
L 282.050215 97.41795 
L 283.32477 95.985072 
L 284.599324 95.868728 
L 285.873879 100.003761 
L 287.148433 109.107977 
L 288.422988 110.078972 
L 289.697543 96.158256 
L 290.972097 103.90584 
L 292.246652 91.505049 
L 293.521206 101.24894 
L 294.795761 106.292307 
L 296.070315 89.651028 
L 297.34487 99.123044 
L 298.619425 96.840387 
L 299.893979 96.772305 
L 301.168534 110.829003 
L 302.443088 100.854306 
L 303.717643 109.742641 
L 304.992198 99.304649 
L 306.266752 110.751252 
L 307.541307 94.829916 
L 307.541307 94.829916 
" clip-path="url(#p4ee7537259)" style="fill: none; stroke: #8b0000; stroke-width: 2; stroke-linecap: square"/>
   </g>
   <g id="line2d_22">
    <path d="M 53.904943 20.324689 
L 55.179498 20.304484 
L 56.454052 18.721345 
L 57.728607 21.70437 
L 59.003162 18.382813 
L 60.277716 20.506611 
L 61.552271 16.078767 
L 62.826825 16.872936 
L 64.10138 19.035064 
L 66.650489 20.777506 
L 67.925044 16.369127 
L 69.199598 85.844326 
L 70.474153 90.132851 
L 71.748707 101.413831 
L 73.023262 111.209242 
L 74.297817 106.508682 
L 75.572371 88.547147 
L 76.846926 94.036596 
L 78.12148 98.689679 
L 79.396035 109.633731 
L 80.67059 95.1413 
L 81.945144 100.626434 
L 83.219699 93.149146 
L 84.494253 104.11523 
L 85.768808 108.420766 
L 87.043363 95.680429 
L 88.317917 89.928044 
L 89.592472 97.646038 
L 90.867026 110.944279 
L 92.141581 107.123801 
L 93.416136 90.133358 
L 94.69069 85.920008 
L 95.965245 103.424165 
L 97.239799 106.828625 
L 98.514354 106.492967 
L 99.788908 104.642842 
L 101.063463 98.749605 
L 102.338018 102.102835 
L 103.612572 92.966173 
L 104.887127 94.315929 
L 106.161681 90.491024 
L 107.436236 87.707773 
L 108.710791 108.95414 
L 109.985345 92.404343 
L 111.2599 106.793223 
L 112.534454 91.114526 
L 113.809009 96.467513 
L 115.083564 101.120458 
L 116.358118 101.165672 
L 117.632673 99.460909 
L 118.907227 94.275208 
L 120.181782 107.508164 
L 121.456337 87.747023 
L 122.730891 97.28067 
L 124.005446 86.55029 
L 125.28 101.662309 
L 126.554555 100.132956 
L 127.829109 100.323831 
L 129.103664 109.391095 
L 130.378219 85.933667 
L 131.652773 100.096327 
L 132.927328 102.190674 
L 134.201882 87.745771 
L 135.476437 103.262756 
L 136.750992 103.829431 
L 138.025546 112.136523 
L 139.300101 93.592718 
L 140.574655 89.254244 
L 141.84921 87.744845 
L 143.123765 110.599044 
L 144.398319 110.395167 
L 145.672874 112.172023 
L 146.947428 110.165669 
L 148.221983 109.580321 
L 149.496538 106.101423 
L 150.771092 107.121668 
L 152.045647 91.094843 
L 153.320201 89.519667 
L 154.594756 86.476995 
L 155.86931 95.609016 
L 157.143865 109.325947 
L 158.41842 101.144784 
L 159.692974 107.426859 
L 160.967529 108.073696 
L 162.242083 106.296312 
L 163.516638 97.432455 
L 164.791193 89.616031 
L 166.065747 91.319517 
L 167.340302 110.819373 
L 168.614856 111.599291 
L 169.889411 81.36902 
L 171.163966 106.365339 
L 172.43852 84.559506 
L 173.713075 109.423707 
L 174.987629 99.562669 
L 176.262184 95.642038 
L 177.536739 88.039163 
L 178.811293 111.993295 
L 180.085848 89.99203 
L 181.360402 107.124284 
L 182.634957 95.436259 
L 183.909511 96.465985 
L 185.184066 100.517096 
L 186.458621 102.397562 
L 187.733175 98.47756 
L 189.00773 88.586824 
L 190.282284 100.882293 
L 191.556839 94.173902 
L 192.831394 85.008141 
L 194.105948 95.82434 
L 195.380503 94.868397 
L 196.655057 90.984903 
L 197.929612 80.477637 
L 199.204167 85.46916 
L 200.478721 89.927491 
L 201.753276 106.047185 
L 203.02783 106.266379 
L 204.302385 110.296214 
L 205.57694 86.013764 
L 206.851494 83.582667 
L 208.126049 91.232242 
L 209.400603 112.111828 
L 210.675158 86.610215 
L 211.949712 111.627207 
L 213.224267 109.779598 
L 214.498822 89.284309 
L 215.773376 103.138692 
L 217.047931 84.126362 
L 218.322485 108.703549 
L 219.59704 97.29015 
L 220.871595 99.720596 
L 222.146149 94.786115 
L 223.420704 109.652585 
L 224.695258 89.335619 
L 225.969813 86.986424 
L 227.244368 101.25118 
L 228.518922 87.108553 
L 229.793477 87.135261 
L 231.068031 109.341045 
L 232.342586 99.118039 
L 233.617141 106.304398 
L 234.891695 91.605878 
L 236.16625 104.67919 
L 237.440804 107.78905 
L 238.715359 112.746367 
L 239.989913 109.252592 
L 241.264468 102.559022 
L 242.539023 108.899339 
L 243.813577 93.424888 
L 245.088132 107.13287 
L 246.362686 107.996885 
L 247.637241 92.833512 
L 248.911796 97.343245 
L 250.18635 102.290366 
L 251.460905 103.158055 
L 252.735459 90.578064 
L 254.010014 104.973125 
L 255.284569 102.660229 
L 256.559123 90.53128 
L 257.833678 83.076586 
L 259.108232 112.026919 
L 260.382787 108.314318 
L 261.657342 110.579741 
L 262.931896 92.495759 
L 264.206451 107.968953 
L 265.481005 105.042109 
L 266.75556 108.059487 
L 268.030114 106.068361 
L 269.304669 109.552247 
L 270.579224 87.937953 
L 271.853778 102.629683 
L 273.128333 109.553474 
L 274.402887 92.999195 
L 275.677442 87.146963 
L 276.951997 87.242203 
L 278.226551 110.214447 
L 279.501106 111.959066 
L 280.77566 110.996298 
L 282.050215 97.980336 
L 283.32477 94.434695 
L 284.599324 92.555633 
L 285.873879 99.273504 
L 287.148433 106.638286 
L 288.422988 112.132497 
L 289.697543 96.177715 
L 290.972097 103.448827 
L 292.246652 90.916481 
L 293.521206 97.863129 
L 294.795761 107.399557 
L 296.070315 95.929386 
L 297.34487 98.403386 
L 298.619425 99.083816 
L 299.893979 96.174662 
L 301.168534 105.951525 
L 302.443088 101.873928 
L 303.717643 103.722791 
L 304.992198 100.2632 
L 306.266752 112.580875 
L 307.541307 92.573682 
L 307.541307 92.573682 
" clip-path="url(#p4ee7537259)" style="fill: none; stroke: #ffffff; stroke-width: 1.5; stroke-linecap: square"/>
   </g>
   <g id="patch_3">
    <path d="M 41.223125 118.08 
L 41.223125 7.2 
" style="fill: none; stroke: #ffffff; stroke-width: 1.5; stroke-linejoin: miter; stroke-linecap: square"/>
   </g>
   <g id="patch_4">
    <path d="M 41.223125 118.08 
L 320.223125 118.08 
" style="fill: none; stroke: #ffffff; stroke-width: 1.5; stroke-linejoin: miter; stroke-linecap: square"/>
   </g>
  </g>
 </g>
 <defs>
  <clipPath id="p4ee7537259">
   <rect x="41.223125" y="7.2" width="279" height="110.88"/>
  </clipPath>
 </defs>
</svg>
